<svg width="48" height="48" viewBox="0 0 48 48" fill="none" xmlns="http://www.w3.org/2000/svg">
<g clip-path="url(#clip0_2034_17)">
<path d="M38.9916 31.453C37.6228 30.0468 33.7322 27.4124 31.1822 27.4124C30.5916 27.4124 30.076 27.5437 29.6541 27.8155C28.4072 28.6124 27.4135 29.2312 26.9353 29.2312C26.6728 29.2312 26.3916 28.9968 25.7728 28.4624L25.6697 28.3687C23.9541 26.878 23.5885 26.4937 22.9228 25.7999L22.7541 25.6218C22.6322 25.4999 22.5291 25.3874 22.426 25.2843C21.8447 24.6843 21.4228 24.253 19.9322 22.5655L19.8666 22.4905C19.1541 21.6843 18.6853 21.1593 18.6572 20.7749C18.6291 20.3999 18.9572 19.7905 19.7916 18.6562C20.8041 17.2874 20.8416 15.5999 19.9135 13.6405C19.1728 12.0937 17.9635 10.6124 16.8947 9.30928L16.801 9.19678C15.8822 8.07178 14.8135 7.50928 13.6228 7.50928C12.301 7.50928 11.2041 8.22178 10.6228 8.59678C10.576 8.6249 10.5291 8.6624 10.4822 8.69053C9.17909 9.51553 8.23221 10.6499 7.87596 11.803C7.34159 13.5374 6.98534 15.7874 9.54471 20.4655C11.7572 24.5155 13.7635 27.2343 16.951 30.5062C19.951 33.5812 21.2822 34.5749 24.2635 36.7312C27.5822 39.1312 30.7697 40.5093 33.001 40.5093C35.0728 40.5093 36.7041 40.5093 39.0291 37.7062C41.4666 34.7624 40.4541 32.9624 38.9916 31.453Z" fill="white"/>
</g>
<defs>
<clipPath id="clip0_2034_17">
<rect width="48" height="48" fill="white"/>
</clipPath>
</defs>
</svg>
