<svg aria-hidden="true" xmlns="http://www.w3.org/2000/svg" xmlns:xlink="http://www.w3.org/1999/xlink"><symbol viewBox="0 0 24 18" fill="none" id="icon-burger" xmlns="http://www.w3.org/2000/svg">
<path d="M24 9C24 9.26522 23.8946 9.51957 23.7071 9.70711C23.5196 9.89464 23.2652 10 23 10H1C0.734784 10 0.48043 9.89464 0.292893 9.70711C0.105357 9.51957 0 9.26522 0 9C0 8.73478 0.105357 8.48043 0.292893 8.29289C0.48043 8.10536 0.734784 8 1 8H23C23.2652 8 23.5196 8.10536 23.7071 8.29289C23.8946 8.48043 24 8.73478 24 9ZM1 2H23C23.2652 2 23.5196 1.89464 23.7071 1.70711C23.8946 1.51957 24 1.26522 24 1C24 0.734784 23.8946 0.48043 23.7071 0.292893C23.5196 0.105357 23.2652 0 23 0H1C0.734784 0 0.48043 0.105357 0.292893 0.292893C0.105357 0.48043 0 0.734784 0 1C0 1.26522 0.105357 1.51957 0.292893 1.70711C0.48043 1.89464 0.734784 2 1 2ZM23 16H1C0.734784 16 0.48043 16.1054 0.292893 16.2929C0.105357 16.4804 0 16.7348 0 17C0 17.2652 0.105357 17.5196 0.292893 17.7071C0.48043 17.8946 0.734784 18 1 18H23C23.2652 18 23.5196 17.8946 23.7071 17.7071C23.8946 17.5196 24 17.2652 24 17C24 16.7348 23.8946 16.4804 23.7071 16.2929C23.5196 16.1054 23.2652 16 23 16Z" fill="currentColor"/>
</symbol><symbol viewBox="0 0 24 24" fill="none" id="icon-close" xmlns="http://www.w3.org/2000/svg">
<path fill-rule="evenodd" clip-rule="evenodd" d="M6.25105 6.25105C6.58579 5.91632 7.1285 5.91632 7.46323 6.25105L12 10.7878L16.5368 6.25105C16.8715 5.91632 17.4142 5.91632 17.7489 6.25105C18.0837 6.58579 18.0837 7.1285 17.7489 7.46323L13.2122 12L17.7489 16.5368C18.0837 16.8715 18.0837 17.4142 17.7489 17.7489C17.4142 18.0837 16.8715 18.0837 16.5368 17.7489L12 13.2122L7.46323 17.7489C7.1285 18.0837 6.58579 18.0837 6.25105 17.7489C5.91632 17.4142 5.91632 16.8715 6.25105 16.5368L10.7878 12L6.25105 7.46323C5.91632 7.1285 5.91632 6.58579 6.25105 6.25105Z" fill="currentColor"/>
</symbol><symbol viewBox="0 0 48 48" fill="none" id="icon-tel" xmlns="http://www.w3.org/2000/svg">
<g clip-path="url(#cclip0_2034_17)">
<path d="M38.9916 31.453C37.6228 30.0468 33.7322 27.4124 31.1822 27.4124C30.5916 27.4124 30.076 27.5437 29.6541 27.8155C28.4072 28.6124 27.4135 29.2312 26.9353 29.2312C26.6728 29.2312 26.3916 28.9968 25.7728 28.4624L25.6697 28.3687C23.9541 26.878 23.5885 26.4937 22.9228 25.7999L22.7541 25.6218C22.6322 25.4999 22.5291 25.3874 22.426 25.2843C21.8447 24.6843 21.4228 24.253 19.9322 22.5655L19.8666 22.4905C19.1541 21.6843 18.6853 21.1593 18.6572 20.7749C18.6291 20.3999 18.9572 19.7905 19.7916 18.6562C20.8041 17.2874 20.8416 15.5999 19.9135 13.6405C19.1728 12.0937 17.9635 10.6124 16.8947 9.30928L16.801 9.19678C15.8822 8.07178 14.8135 7.50928 13.6228 7.50928C12.301 7.50928 11.2041 8.22178 10.6228 8.59678C10.576 8.6249 10.5291 8.6624 10.4822 8.69053C9.17909 9.51553 8.23221 10.6499 7.87596 11.803C7.34159 13.5374 6.98534 15.7874 9.54471 20.4655C11.7572 24.5155 13.7635 27.2343 16.951 30.5062C19.951 33.5812 21.2822 34.5749 24.2635 36.7312C27.5822 39.1312 30.7697 40.5093 33.001 40.5093C35.0728 40.5093 36.7041 40.5093 39.0291 37.7062C41.4666 34.7624 40.4541 32.9624 38.9916 31.453Z" fill="currentColor"/>
</g>
<defs>
<clipPath id="cclip0_2034_17">
<rect width="48" height="48" fill="currentColor"/>
</clipPath>
</defs>
</symbol></svg>