<svg width="75" height="76" viewBox="0 0 75 76" fill="none" xmlns="http://www.w3.org/2000/svg">
<path d="M67.9688 49.7188H65.625V21.5938C65.625 19.7289 64.8842 17.9405 63.5656 16.6219C62.247 15.3033 60.4586 14.5625 58.5938 14.5625H16.4062C14.5414 14.5625 12.753 15.3033 11.4344 16.6219C10.1158 17.9405 9.375 19.7289 9.375 21.5938V49.7188H7.03125C6.40965 49.7188 5.81351 49.9657 5.37397 50.4052C4.93443 50.8448 4.6875 51.4409 4.6875 52.0625V56.75C4.6875 58.6148 5.42829 60.4032 6.74691 61.7218C8.06552 63.0405 9.85395 63.7812 11.7188 63.7812H63.2812C65.1461 63.7812 66.9345 63.0405 68.2531 61.7218C69.5717 60.4032 70.3125 58.6148 70.3125 56.75V52.0625C70.3125 51.4409 70.0656 50.8448 69.626 50.4052C69.1865 49.9657 68.5904 49.7188 67.9688 49.7188ZM14.0625 21.5938C14.0625 20.9721 14.3094 20.376 14.749 19.9365C15.1885 19.4969 15.7846 19.25 16.4062 19.25H58.5938C59.2154 19.25 59.8115 19.4969 60.251 19.9365C60.6906 20.376 60.9375 20.9721 60.9375 21.5938V49.7188H14.0625V21.5938ZM65.625 56.75C65.625 57.3716 65.3781 57.9677 64.9385 58.4073C64.499 58.8468 63.9029 59.0938 63.2812 59.0938H11.7188C11.0971 59.0938 10.501 58.8468 10.0615 58.4073C9.62193 57.9677 9.375 57.3716 9.375 56.75V54.4062H65.625V56.75ZM44.5312 26.2812C44.5312 26.9029 44.2843 27.499 43.8448 27.9385C43.4052 28.3781 42.8091 28.625 42.1875 28.625H32.8125C32.1909 28.625 31.5948 28.3781 31.1552 27.9385C30.7157 27.499 30.4688 26.9029 30.4688 26.2812C30.4688 25.6596 30.7157 25.0635 31.1552 24.624C31.5948 24.1844 32.1909 23.9375 32.8125 23.9375H42.1875C42.8091 23.9375 43.4052 24.1844 43.8448 24.624C44.2843 25.0635 44.5312 25.6596 44.5312 26.2812Z" fill="url(#paint0_linear_2034_99)"/>
<defs>
<linearGradient id="paint0_linear_2034_99" x1="6.60511" y1="67.2969" x2="76.6485" y2="54.8599" gradientUnits="userSpaceOnUse">
<stop stop-color="#5C5DE7"/>
<stop offset="1" stop-color="#FF6F91"/>
</linearGradient>
</defs>
</svg>
