<svg width="48" height="48" viewBox="0 0 48 48" fill="none" xmlns="http://www.w3.org/2000/svg">
<g clip-path="url(#clip0_2034_22)">
<g clip-path="url(#clip1_2034_22)">
<path d="M24 48C10.7472 48 0 37.2528 0 24C0 10.7472 10.7472 0 24 0C37.2528 0 48 10.7472 48 24C48 37.2528 37.2528 48 24 48Z" fill="#25D366"/>
<path fill-rule="evenodd" clip-rule="evenodd" d="M35.2265 12.8257C32.2505 9.84489 28.2857 8.20329 24.0665 8.19849C15.3737 8.19849 8.29366 15.2737 8.29366 23.9713C8.29366 26.7505 9.01846 29.4673 10.4009 31.8577L8.16406 40.0321L16.5257 37.8385C18.8297 39.0961 21.4217 39.7585 24.0617 39.7585H24.0665C32.7593 39.7585 39.8345 32.6833 39.8393 23.9857C39.8441 19.7713 38.2073 15.8065 35.2265 12.8257ZM24.0713 37.0945H24.0665C21.7145 37.0945 19.4057 36.4609 17.3945 35.2657L16.9145 34.9825L11.9513 36.2833L13.2761 31.4449L12.9641 30.9505C11.6537 28.8625 10.9577 26.4529 10.9577 23.9713C10.9625 16.7425 16.8425 10.8625 24.0761 10.8625C27.5801 10.8625 30.8681 12.2305 33.3449 14.7073C35.8217 17.1841 37.1849 20.4817 37.1801 23.9809C37.1801 31.2145 31.2953 37.0945 24.0713 37.0945ZM31.2617 27.2737C30.8681 27.0769 28.9289 26.1217 28.5689 25.9921C28.2089 25.8625 27.9449 25.7953 27.6809 26.1889C27.4169 26.5825 26.6633 27.4705 26.4329 27.7345C26.2025 27.9985 25.9721 28.0321 25.5785 27.8353C25.1849 27.6385 23.9129 27.2209 22.4105 25.8769C21.2393 24.8305 20.4473 23.5393 20.2169 23.1457C19.9865 22.7521 20.1929 22.5361 20.3897 22.3393C20.5673 22.1617 20.7833 21.8785 20.9801 21.6481C21.1769 21.4177 21.2441 21.2545 21.3737 20.9905C21.5033 20.7265 21.4409 20.4961 21.3401 20.2993C21.2393 20.1025 20.4521 18.1633 20.1257 17.3713C19.8041 16.6033 19.4825 16.7089 19.2377 16.6945C19.0073 16.6849 18.7433 16.6801 18.4841 16.6801C18.2201 16.6801 17.7929 16.7809 17.4329 17.1745C17.0729 17.5681 16.0553 18.5233 16.0553 20.4625C16.0553 22.4017 17.4665 24.2785 17.6633 24.5377C17.8601 24.8017 20.4425 28.7809 24.3977 30.4897C25.3385 30.8977 26.0729 31.1377 26.6441 31.3201C27.5897 31.6225 28.4489 31.5793 29.1257 31.4785C29.8841 31.3633 31.4585 30.5233 31.7849 29.6065C32.1113 28.6849 32.1113 27.8977 32.0153 27.7345C31.9193 27.5713 31.6553 27.4753 31.2617 27.2737Z" fill="white"/>
</g>
</g>
<defs>
<clipPath id="clip0_2034_22">
<rect width="48" height="48" fill="white"/>
</clipPath>
<clipPath id="clip1_2034_22">
<rect width="48" height="48" fill="white"/>
</clipPath>
</defs>
</svg>
